<svg id="Layer_1" data-name="Layer 1" xmlns="http://www.w3.org/2000/svg" viewBox="0 0 733.5 120"><defs><style>.cls-1{fill:#feb216;}</style></defs><title>GiapPham Logo</title><path class="cls-1" d="M58.2,109.8a45.7,45.7,0,0,1-18.9-3.9A45.6,45.6,0,0,1,23.9,95.3,48.7,48.7,0,0,1,13.7,79.4,51.2,51.2,0,0,1,10,59.7a51,51,0,0,1,3.7-19.6A48.7,48.7,0,0,1,39.2,13.6a46.1,46.1,0,0,1,19-3.8,50.4,50.4,0,0,1,16.5,2.4,49.1,49.1,0,0,1,14,8.3L90.2,22a6.5,6.5,0,0,1,.8,1.7,10.9,10.9,0,0,1,.1,1.9,5.4,5.4,0,0,1-1.6,4,5.9,5.9,0,0,1-4.2,1.7,6.1,6.1,0,0,1-4.5-1.6,38.7,38.7,0,0,0-9.6-6.1c-3.3-1.4-7.6-2.1-13-2.1a33.1,33.1,0,0,0-13.9,3,36.8,36.8,0,0,0-11.4,8.2,39.5,39.5,0,0,0-7.7,12.2,40.1,40.1,0,0,0-2.7,14.8,40.7,40.7,0,0,0,2.7,14.9,39.5,39.5,0,0,0,7.7,12.2A36.8,36.8,0,0,0,44.3,95a34.6,34.6,0,0,0,13.9,2.9,32.3,32.3,0,0,0,12-2.2,51.4,51.4,0,0,0,11-6,6.5,6.5,0,0,1,4.4-1.5A5.5,5.5,0,0,1,89.3,90a5.8,5.8,0,0,1,1.5,4.3,6.9,6.9,0,0,1-.5,2.4,6.2,6.2,0,0,1-1.5,2.2,45.1,45.1,0,0,1-14.4,8.2A48.7,48.7,0,0,1,58.2,109.8ZM90.8,94.3,78.3,91.8V69.4H61.1a6.9,6.9,0,0,1-4.7-1.6,5.4,5.4,0,0,1-1.8-4.1,5.1,5.1,0,0,1,1.8-4.1,7,7,0,0,1,4.7-1.7H84.4A5.8,5.8,0,0,1,89,59.8a6.2,6.2,0,0,1,1.8,4.6Z"/><path class="cls-1" d="M118,108.5a6.5,6.5,0,0,1-6.5-6.5V17.5a6.1,6.1,0,0,1,1.9-4.7A6.3,6.3,0,0,1,118,11a6.2,6.2,0,0,1,6.5,6.5V102a6.3,6.3,0,0,1-1.8,4.6A6.1,6.1,0,0,1,118,108.5Z"/><path class="cls-1" d="M145.6,108.5a6,6,0,0,1-5.4-3,6.6,6.6,0,0,1-.4-6.4l35.1-83.7c1.3-2.9,3.3-4.4,6.1-4.4a6.2,6.2,0,0,1,6.2,4.4l35.2,84a6.7,6.7,0,0,1-.5,6.3,5.9,5.9,0,0,1-5.4,2.8,6.9,6.9,0,0,1-3.6-1.1,5.7,5.7,0,0,1-2.4-2.9l-31-76.9H183l-31.4,76.9a7,7,0,0,1-2.6,3A6.3,6.3,0,0,1,145.6,108.5ZM152.2,87l5-10.7h48.9l5,10.7Z"/><path class="cls-1" d="M243.7,108.5a6.5,6.5,0,0,1-6.5-6.5V17.5a6.1,6.1,0,0,1,1.9-4.7,6.3,6.3,0,0,1,4.6-1.8h25a33.8,33.8,0,0,1,16.6,4.1,30.2,30.2,0,0,1,11.3,11.4,34.2,34.2,0,0,1,4,16.8,32.6,32.6,0,0,1-4,16.3,29.4,29.4,0,0,1-11.3,11.1,34.8,34.8,0,0,1-16.6,4H250.2V102a6.3,6.3,0,0,1-1.8,4.6A6.1,6.1,0,0,1,243.7,108.5Zm6.5-45.8h18.5a19.7,19.7,0,0,0,10.1-2.5,19,19,0,0,0,6.9-6.9,20.3,20.3,0,0,0,2.4-10,22,22,0,0,0-2.4-10.5,19.1,19.1,0,0,0-6.9-7.2A19.7,19.7,0,0,0,268.7,23H250.2Z"/><path class="cls-1" d="M358.1,108.5a6.3,6.3,0,0,1-4.7-1.9,6.3,6.3,0,0,1-1.8-4.6V17.5a6.4,6.4,0,0,1,1.8-4.7,6.6,6.6,0,0,1,4.7-1.8H383a33.2,33.2,0,0,1,16.6,4.1,29.5,29.5,0,0,1,11.3,11.4A34.3,34.3,0,0,1,415,43.3a32.6,32.6,0,0,1-4.1,16.3,28.7,28.7,0,0,1-11.3,11.1,34.3,34.3,0,0,1-16.6,4H364.6V102a6.4,6.4,0,0,1-1.9,4.6A5.9,5.9,0,0,1,358.1,108.5Zm6.5-45.8H383a19.4,19.4,0,0,0,10.1-2.5,18.3,18.3,0,0,0,6.9-6.9,19.3,19.3,0,0,0,2.5-10A20.9,20.9,0,0,0,400,32.8a18.4,18.4,0,0,0-6.9-7.2A19.5,19.5,0,0,0,383,23H364.6Z"/><path class="cls-1" d="M435.8,108.5a6.2,6.2,0,0,1-4.6-1.9,6.4,6.4,0,0,1-1.9-4.6V17.5a6.3,6.3,0,0,1,6.5-6.5,6.2,6.2,0,0,1,6.5,6.5V53.3h58V17.5a6.4,6.4,0,0,1,1.8-4.7,6.5,6.5,0,0,1,4.6-1.8,6.3,6.3,0,0,1,4.7,1.8,6.8,6.8,0,0,1,1.7,4.7V102a6.7,6.7,0,0,1-1.7,4.6,6,6,0,0,1-4.7,1.9,6.2,6.2,0,0,1-4.6-1.9,6.3,6.3,0,0,1-1.8-4.6V64.8h-58V102a6.3,6.3,0,0,1-1.8,4.6A6.1,6.1,0,0,1,435.8,108.5Z"/><path class="cls-1" d="M534.2,108.5a6.1,6.1,0,0,1-5.4-3,6.6,6.6,0,0,1-.3-6.4l35-83.7c1.3-2.9,3.3-4.4,6.2-4.4s5,1.5,6.1,4.4l35.2,84a6.7,6.7,0,0,1-.4,6.3,6.2,6.2,0,0,1-5.5,2.8,6.6,6.6,0,0,1-3.5-1.1,5.5,5.5,0,0,1-2.5-2.9L568.2,27.6h3.5l-31.5,76.9a6.4,6.4,0,0,1-2.6,3A6.1,6.1,0,0,1,534.2,108.5ZM540.8,87l5-10.7h49l5,10.7Z"/><path class="cls-1" d="M632.3,108.5a6.2,6.2,0,0,1-4.6-1.9,6.4,6.4,0,0,1-1.9-4.6V17.5a6.5,6.5,0,0,1,12.3-3l39.1,78.3h-4l38-78.3A6.5,6.5,0,0,1,717,11a6.3,6.3,0,0,1,4.6,1.8,6.5,6.5,0,0,1,1.9,4.7V102a6.7,6.7,0,0,1-6.5,6.5,5.9,5.9,0,0,1-4.6-1.9,6,6,0,0,1-1.9-4.6V35.5l2.5-.7-32.7,66.7a6.4,6.4,0,0,1-5.6,3.3,6.2,6.2,0,0,1-6-3.9L636.3,36.1l2.5-.6V102a6.3,6.3,0,0,1-1.8,4.6A6.3,6.3,0,0,1,632.3,108.5Z"/></svg>